<svg width="200" height="200" viewBox="0 0 200 200" fill="none" xmlns="http://www.w3.org/2000/svg">
    <!-- Body/Skin -->
    <path d="M100 160C130 160 155 135 155 105C155 75 130 50 100 50C70 50 45 75 45 105C45 135 70 160 100 160Z" fill="#10B981"/>
    
    <!-- Shell -->
    <path d="M100 145C125 145 145 125 145 100C145 75 125 55 100 55C75 55 55 75 55 100C55 125 75 145 100 145Z" fill="#059669"/>
    <path d="M100 135C120 135 135 120 135 100C135 80 120 65 100 65C80 65 65 80 65 100C65 120 80 135 100 135Z" fill="#047857" opacity="0.3"/>
    
    <!-- Head -->
    <path d="M100 80C115 80 128 67 128 50C128 33 115 20 100 20C85 20 72 33 72 50C72 67 85 80 100 80Z" fill="#10B981"/>
    
    <!-- Eyes -->
    <circle cx="88" cy="45" r="5" fill="white"/>
    <circle cx="89" cy="44" r="2" fill="black"/>
    <circle cx="112" cy="45" r="5" fill="white"/>
    <circle cx="111" cy="44" r="2" fill="black"/>
    
    <!-- Smile -->
    <path d="M90 60C95 65 105 65 110 60" stroke="white" stroke-width="2" stroke-linecap="round"/>
    
    <!-- Limbs -->
    <path d="M60 140L45 155" stroke="#10B981" stroke-width="12" stroke-linecap="round"/>
    <path d="M140 140L155 155" stroke="#10B981" stroke-width="12" stroke-linecap="round"/>
    <path d="M60 70L45 55" stroke="#10B981" stroke-width="12" stroke-linecap="round"/>
    
    <!-- Waving Arm -->
    <path d="M140 70L165 45" stroke="#10B981" stroke-width="12" stroke-linecap="round">
        <animateTransform attributeName="transform" attributeType="XML" type="rotate" from="0 140 70" to="-15 140 70" dur="0.5s" repeatCount="indefinite" additive="replace"/>
    </path>
</svg>
